<svg width="194" height="22" viewBox="0 0 194 22" fill="none" xmlns="http://www.w3.org/2000/svg">
<path d="M8.14773 21H0.3125V0.636363H8.06818C10.1629 0.636363 11.9725 1.04403 13.4972 1.85938C15.0284 2.66809 16.2083 3.83475 17.0369 5.35938C17.8722 6.87737 18.2898 8.69697 18.2898 10.8182C18.2898 12.9394 17.8755 14.7623 17.0469 16.2869C16.2183 17.8049 15.045 18.9716 13.527 19.7869C12.009 20.5956 10.2159 21 8.14773 21ZM5.84091 16.3068H7.94886C8.95644 16.3068 9.81487 16.1444 10.5241 15.8196C11.2401 15.4948 11.7836 14.9347 12.1548 14.1392C12.5327 13.3437 12.7216 12.2367 12.7216 10.8182C12.7216 9.39962 12.5294 8.29261 12.1449 7.49716C11.767 6.7017 11.2102 6.14157 10.4744 5.81676C9.74527 5.49195 8.85038 5.32954 7.78977 5.32954H5.84091V16.3068ZM20.8477 21V0.636363H35.5238V5.09091H26.3761V8.59091H34.7681V13.0455H26.3761V16.5455H35.484V21H20.8477ZM43.8338 0.636363L48.0099 14.9943H48.169L52.3452 0.636363H58.5895L51.8679 21H44.3111L37.5895 0.636363H43.8338Z" fill="#1F8053"/>
<path d="M61.7042 21V0.636363H68.5849C70.1824 0.636363 71.4883 0.924715 72.5025 1.50142C73.5233 2.0715 74.279 2.84375 74.7695 3.81818C75.2601 4.79261 75.5053 5.87973 75.5053 7.07955C75.5053 8.27936 75.2601 9.36979 74.7695 10.3509C74.2856 11.3319 73.5366 12.1141 72.5224 12.6974C71.5082 13.2741 70.2089 13.5625 68.6246 13.5625H63.6928V11.375H68.5451C69.6388 11.375 70.5172 11.1861 71.18 10.8082C71.8429 10.4304 72.3235 9.91998 72.6218 9.27699C72.9267 8.62737 73.0792 7.89489 73.0792 7.07955C73.0792 6.2642 72.9267 5.53504 72.6218 4.89204C72.3235 4.24905 71.8396 3.74526 71.1701 3.38068C70.5006 3.00947 69.6123 2.82386 68.5053 2.82386H64.1701V21H61.7042ZM79.4776 21V0.636363H86.3583C87.9492 0.636363 89.2551 0.908143 90.2759 1.4517C91.2968 1.98864 92.0524 2.72775 92.543 3.66903C93.0335 4.61032 93.2788 5.68087 93.2788 6.88068C93.2788 8.08049 93.0335 9.14441 92.543 10.0724C92.0524 11.0005 91.3001 11.7296 90.2859 12.2599C89.2717 12.7836 87.9757 13.0455 86.3981 13.0455H80.8299V10.8182H86.3185C87.4057 10.8182 88.2807 10.6591 88.9435 10.3409C89.613 10.0227 90.0969 9.57197 90.3952 8.98864C90.7002 8.39867 90.8526 7.69602 90.8526 6.88068C90.8526 6.06534 90.7002 5.35275 90.3952 4.7429C90.0903 4.13305 89.6031 3.66241 88.9336 3.33097C88.2641 2.9929 87.3791 2.82386 86.2788 2.82386H81.9435V21H79.4776ZM89.0629 11.8523L94.0742 21H91.2106L86.2788 11.8523H89.0629ZM98.223 21H95.6378L103.115 0.636363H105.661L113.138 21H110.553L104.467 3.85795H104.308L98.223 21ZM99.1776 13.0455H109.598V15.233H99.1776V13.0455ZM131.739 7H129.273C129.127 6.29072 128.872 5.66761 128.507 5.13068C128.15 4.59375 127.712 4.14299 127.195 3.77841C126.685 3.4072 126.118 3.12879 125.495 2.94318C124.872 2.75758 124.222 2.66477 123.546 2.66477C122.313 2.66477 121.196 2.97633 120.195 3.59943C119.201 4.22254 118.408 5.14062 117.819 6.35369C117.235 7.56676 116.944 9.05492 116.944 10.8182C116.944 12.5814 117.235 14.0696 117.819 15.2827C118.408 16.4957 119.201 17.4138 120.195 18.0369C121.196 18.66 122.313 18.9716 123.546 18.9716C124.222 18.9716 124.872 18.8788 125.495 18.6932C126.118 18.5076 126.685 18.2325 127.195 17.8679C127.712 17.4967 128.15 17.0426 128.507 16.5057C128.872 15.9621 129.127 15.339 129.273 14.6364H131.739C131.553 15.6771 131.215 16.6084 130.725 17.4304C130.234 18.2524 129.624 18.9517 128.895 19.5284C128.166 20.0985 127.347 20.5327 126.439 20.831C125.538 21.1293 124.573 21.2784 123.546 21.2784C121.809 21.2784 120.265 20.8542 118.912 20.0057C117.56 19.1572 116.496 17.9508 115.721 16.3864C114.945 14.822 114.557 12.9659 114.557 10.8182C114.557 8.67045 114.945 6.81439 115.721 5.25C116.496 3.68561 117.56 2.47917 118.912 1.63068C120.265 0.782196 121.809 0.357954 123.546 0.357954C124.573 0.357954 125.538 0.507102 126.439 0.805397C127.347 1.10369 128.166 1.54119 128.895 2.1179C129.624 2.68797 130.234 3.384 130.725 4.20597C131.215 5.02131 131.553 5.95265 131.739 7ZM134.61 2.82386V0.636363H149.883V2.82386H143.479V21H141.013V2.82386H134.61ZM156.154 0.636363V21H153.689V0.636363H156.154ZM177.485 7H175.019C174.873 6.29072 174.618 5.66761 174.254 5.13068C173.896 4.59375 173.458 4.14299 172.941 3.77841C172.431 3.4072 171.864 3.12879 171.241 2.94318C170.618 2.75758 169.968 2.66477 169.292 2.66477C168.059 2.66477 166.942 2.97633 165.941 3.59943C164.947 4.22254 164.155 5.14062 163.565 6.35369C162.981 7.56676 162.69 9.05492 162.69 10.8182C162.69 12.5814 162.981 14.0696 163.565 15.2827C164.155 16.4957 164.947 17.4138 165.941 18.0369C166.942 18.66 168.059 18.9716 169.292 18.9716C169.968 18.9716 170.618 18.8788 171.241 18.6932C171.864 18.5076 172.431 18.2325 172.941 17.8679C173.458 17.4967 173.896 17.0426 174.254 16.5057C174.618 15.9621 174.873 15.339 175.019 14.6364H177.485C177.299 15.6771 176.961 16.6084 176.471 17.4304C175.98 18.2524 175.371 18.9517 174.641 19.5284C173.912 20.0985 173.094 20.5327 172.185 20.831C171.284 21.1293 170.319 21.2784 169.292 21.2784C167.555 21.2784 166.011 20.8542 164.658 20.0057C163.306 19.1572 162.242 17.9508 161.467 16.3864C160.691 14.822 160.303 12.9659 160.303 10.8182C160.303 8.67045 160.691 6.81439 161.467 5.25C162.242 3.68561 163.306 2.47917 164.658 1.63068C166.011 0.782196 167.555 0.357954 169.292 0.357954C170.319 0.357954 171.284 0.507102 172.185 0.805397C173.094 1.10369 173.912 1.54119 174.641 2.1179C175.371 2.68797 175.98 3.384 176.471 4.20597C176.961 5.02131 177.299 5.95265 177.485 7ZM181.47 21V0.636363H193.76V2.82386H183.936V9.70455H193.123V11.892H183.936V18.8125H193.919V21H181.47Z" fill="white"/>
</svg>
